:SAMPLES-PER-SECOND 30
:FULLY-SPECIFIED
:DEGREES
777
root  -52.7975 39.9088 12.2802 170.776 40.2802 176.437
RightUpLeg  0.151435 -10.0326 -4.63832
RightLeg  18.9576 2.39299 0.730359
RightFoot  -13.7087 -0.0975997 -0.2343
RightToes  -5.8209e-011 0 -3.6325e-017
Spine  9.6643 -2.34311 7.80303
Spine1  11.958 -1.5206 0.67202
HEad  -19.1694 -22.0245 4.0254
LeftShoulder1  0.203868 2.9165 -28.5666
LeftArm  -15.1671 11.0059 -36.5228
LeftForeArm  79.0325 -78.4989 -103.754
LeftHand  -0.14058 0.525607 3.31836
RightShoulder  -0.19847 -4.09383 25.9386
RightArm  -15.2402 -14.8399 38.1305
RightForeArm  113.413 69.4723 146.798
RightHand  -0.126558 -1.05236 -3.25479
LeftUpLeg  -10.4243 -3.75059 6.10119
LeftLeg  27.7354 -4.29232 -2.11225
LeftFoot  -4.82483 0.306944 -4.88266
LeftToes  -8.31281e-010 4.41007e-011 3.74621e-011
778
root  -52.2729 39.9336 12.0264 170.442 45.5059 175.706
RightUpLeg  0.187984 -8.30781 -3.93002
RightLeg  18.682 5.42656 0.999996
RightFoot  -14.0843 -0.111929 -0.695015
RightToes  -5.8209e-011 0 -3.6325e-017
Spine  9.00788 -2.09212 7.79542
Spine1  12.4629 -1.24012 0.354299
HEad  -19.1663 -19.8733 2.77091
LeftShoulder1  0.0796207 3.27538 -28.688
LeftArm  -15.7878 10.5905 -36.1231
LeftForeArm  78.8661 -78.5035 -103.623
LeftHand  -0.118466 0.617391 2.82974
RightShoulder  -0.214803 -4.15058 25.6066
RightArm  -15.2639 -14.041 39.0679
RightForeArm  114.147 69.4407 146.93
RightHand  -0.0893687 -1.04544 -2.25184
LeftUpLeg  -12.5405 -3.40259 4.86595
LeftLeg  29.8013 -3.12566 -1.6039
LeftFoot  -4.67631 0.312116 -4.87725
LeftToes  -8.31281e-010 4.41007e-011 3.74621e-011
779
root  -51.7381 39.9571 11.7388 169.535 49.8298 175.135
RightUpLeg  1.37329 -7.58538 -3.73381
RightLeg  18.2018 8.70383 1.62895
RightFoot  -14.5765 -0.125231 -0.946456
RightToes  -5.8209e-011 0 -3.6325e-017
Spine  9.59158 -2.19087 7.99627
Spine1  12.0051 -1.19185 -0.242907
HEad  -18.5624 -19.2932 2.83141
LeftShoulder1  0.106255 3.20019 -28.9176
LeftArm  -16.4594 10.736 -35.5917
LeftForeArm  79.2453 -78.4553 -104.333
LeftHand  -0.132815 0.257162 2.97759
RightShoulder  -0.164374 -3.99677 25.3491
RightArm  -14.8933 -13.6096 39.8631
RightForeArm  114.739 69.0626 147.636
RightHand  -0.123341 -1.14861 -3.24687
LeftUpLeg  -14.0442 -2.74234 3.80477
LeftLeg  30.5153 -2.55057 -1.28911
LeftFoot  -4.64918 0.302346 -4.69333
LeftToes  -8.31281e-010 4.41007e-011 3.74621e-011
780
root  -51.1377 40.0023 11.4287 168.583 53.6457 174.255
RightUpLeg  2.64074 -7.30767 -3.8389
RightLeg  17.4612 12.005 2.14905
RightFoot  -14.8853 -0.138443 -1.21953
RightToes  -5.8209e-011 0 -3.6325e-017
Spine  9.46777 -2.1076 7.8189
Spine1  12.1365 -1.10326 -0.618247
HEad  -18.7507 -18.006 1.95283
LeftShoulder1  0.137613 3.10628 -28.5421
LeftArm  -17.3719 10.6852 -36.1862
LeftForeArm  79.0487 -78.4973 -103.778
LeftHand  -0.0867622 0.892372 2.1546
RightShoulder  -0.231801 -4.2048 25.6046
RightArm  -14.6842 -13.292 40.0471
RightForeArm  115.097 68.6525 148.343
RightHand  -0.133461 -1.49853 -3.66456
LeftUpLeg  -15.2748 -1.73831 2.61389
LeftLeg  29.151 -2.02701 -0.890719
LeftFoot  -4.49846 0.302727 -4.61074
LeftToes  -8.31281e-010 4.41007e-011 3.74621e-011
781
root  -50.444 40.027 11.1148 167.391 56.8659 173.293
RightUpLeg  4.22418 -6.70661 -3.77032
RightLeg  16.7744 14.4879 2.10296
RightFoot  -15.193 -0.161911 -1.76049
RightToes  -5.8209e-011 0 -3.6325e-017
Spine  9.25899 -2.05084 6.7401
Spine1  12.5545 -1.41491 0.124304
HEad  -18.4578 -15.9622 1.07377
LeftShoulder1  0.0617146 3.32973 -29.2201
LeftArm  -17.8793 10.2494 -35.6188
LeftForeArm  77.9606 -78.5042 -103.19
LeftHand  -0.0989856 0.354952 2.26173
RightShoulder  -0.240167 -4.23675 25.3485
RightArm  -14.19 -13.0442 40.8278
RightForeArm  113.327 68.2598 148.766
RightHand  -0.231003 -1.34903 -6.54868
LeftUpLeg  -16.042 -1.09327 1.58204
LeftLeg  26.4973 -1.6649 -0.574777
LeftFoot  -4.28873 0.316016 -4.71009
LeftToes  -8.31281e-010 4.41007e-011 3.74621e-011
782
root  -49.7271 40.017 10.7777 166.29 59.9125 172.438
RightUpLeg  5.74701 -5.88138 -3.69926
RightLeg  16.3225 16.5616 2.15779
RightFoot  -15.631 -0.191303 -2.28305
RightToes  -5.8209e-011 0 -3.6325e-017
Spine  9.45292 -2.06088 6.55029
Spine1  12.1114 -1.33963 -0.505229
HEad  -17.3344 -14.8367 0.929651
LeftShoulder1  0.058877 3.33536 -28.817
LeftArm  -17.9772 10.372 -35.5018
LeftForeArm  78.1175 -78.5029 -103.279
LeftHand  -0.109917 0.2693 2.48895
RightShoulder  -0.220665 -4.17122 25.4869
RightArm  -14.3524 -13.4822 41.1765
RightForeArm  114.34 67.9539 149.339
RightHand  -0.198926 -1.54573 -5.9122
LeftUpLeg  -16.618 -0.489172 0.874838
LeftLeg  23.1491 -1.64515 -0.440901
LeftFoot  -4.44962 0.330257 -5.03982
LeftToes  -8.31281e-010 4.41007e-011 3.74621e-011
783
root  -48.9505 39.985 10.3973 165.136 62.4578 171.573
RightUpLeg  7.47887 -5.13478 -3.66637
RightLeg  15.8603 18.213 2.00574
RightFoot  -16.174 -0.234089 -2.95597
RightToes  -5.8209e-011 0 -3.6325e-017
Spine  9.1259 -2.15156 6.21571
Spine1  12.3232 -1.44917 -0.826481
HEad  -16.7125 -13.1218 0.618208
LeftShoulder1  0.0809724 3.27171 -28.7326
LeftArm  -18.1645 10.3602 -35.1513
LeftForeArm  77.2309 -78.5035 -102.849
LeftHand  -0.13519 0.482464 3.17276
RightShoulder  -0.29346 -4.39109 25.8477
RightArm  -13.8 -13.2596 41.378
RightForeArm  115.786 68.0513 149.342
RightHand  -0.161087 -0.803559 -4.00719
LeftUpLeg  -16.8764 -0.187517 0.285412
LeftLeg  19.2634 -2.21641 -0.544276
LeftFoot  -4.58768 0.342874 -5.36006
LeftToes  -8.31281e-010 4.41007e-011 3.74621e-011
784
root  -48.1045 39.9181 10.0115 164.291 64.8548 170.948
RightUpLeg  9.12604 -3.92532 -3.2747
RightLeg  15.564 19.0882 1.63913
RightFoot  -16.7288 -0.28307 -3.61297
RightToes  -5.8209e-011 0 -3.6325e-017
Spine  8.61017 -2.06264 5.6799
Spine1  12.7172 -1.50722 -0.670815
HEad  -16.1654 -11.89 -0.106299
LeftShoulder1  0.0803428 3.27379 -28.8194
LeftArm  -18.31 10.2775 -34.6775
LeftForeArm  76.4347 -78.5241 -102.22
LeftHand  -0.118384 0.282942 2.67977
RightShoulder  -0.221644 -4.1746 25.5264
RightArm  -14.1488 -13.622 41.6716
RightForeArm  117.557 67.6522 150.115
RightHand  -0.140387 -1.61489 -4.06997
LeftUpLeg  -17.0195 0.321985 -0.0776931
LeftLeg  15.2331 -2.8098 -0.537021
LeftFoot  -4.51992 0.349066 -5.46817
LeftToes  -8.31281e-010 4.41007e-011 3.74621e-011
785
root  -47.2199 39.816 9.60086 163.78 66.9782 170.547
RightUpLeg  10.7677 -3.06484 -3.02437
RightLeg  15.249 20.012 1.47789
RightFoot  -17.4272 -0.340613 -4.18917
RightToes  -5.8209e-011 0 -3.6325e-017
Spine  8.1518 -2.046 5.25047
Spine1  12.8175 -1.60886 -0.572096
HEad  -15.6204 -10.3287 -0.478671
LeftShoulder1  0.018944 3.45006 -29.035
LeftArm  -18.3022 10.192 -34.0557
LeftForeArm  76.4386 -78.5174 -102.297
LeftHand  -0.0995883 0.508907 2.33409
RightShoulder  -0.257065 -4.28712 25.4695
RightArm  -13.6082 -13.4167 41.6185
RightForeArm  117.528 67.5765 150.22
RightHand  -0.109543 -1.90923 -3.66212
LeftUpLeg  -17.0913 1.17832 -0.290224
LeftLeg  11.3715 -3.93387 -0.550234
LeftFoot  -4.58205 0.380586 -5.97175
LeftToes  -8.31281e-010 4.41007e-011 3.74621e-011
786
root  -46.2744 39.6667 9.16559 163.48 68.9496 170.302
RightUpLeg  12.4973 -2.10956 -2.75701
RightLeg  14.8725 20.8445 1.26431
RightFoot  -18.3445 -0.417184 -4.78668
RightToes  -5.8209e-011 0 -3.6325e-017
Spine  7.52179 -1.96468 4.72892
Spine1  12.9927 -1.6403 -0.460019
HEad  -15.2903 -8.63122 -0.729911
LeftShoulder1  0.0066499 3.48502 -28.967
LeftArm  -18.1831 10.562 -33.5543
LeftForeArm  78.1908 -78.4105 -104.347
LeftHand  -0.0986538 0.83292 2.42917
RightShoulder  -0.270559 -4.32075 25.8133
RightArm  -13.15 -12.877 41.1305
RightForeArm  115.538 67.5817 150.006
RightHand  -0.125968 -3.42349 -6.56155
LeftUpLeg  -17.1607 1.35701 -0.182348
LeftLeg  8.35686 -4.65682 -0.4061
LeftFoot  -4.43711 0.423259 -6.5714
LeftToes  -8.31281e-010 4.41007e-011 3.74621e-011
787
root  -45.2824 39.4588 8.70167 164.006 70.8212 170.876
RightUpLeg  14.2105 -0.905934 -2.12237
RightLeg  14.6429 21.063 0.992502
RightFoot  -19.2954 -0.514373 -5.51791
RightToes  -5.8209e-011 0 -3.6325e-017
Spine  7.16591 -1.84451 4.58872
Spine1  12.799 -1.54538 -0.48348
HEad  -14.602 -7.74828 -0.556425
LeftShoulder1  -0.0179113 3.5549 -28.7075
LeftArm  -18.1166 10.8995 -33.3277
LeftForeArm  79.142 -78.352 -105.389
LeftHand  -0.0955055 0.703537 2.29826
RightShoulder  -0.294864 -4.39759 25.7727
RightArm  -12.5576 -12.526 41.2279
RightForeArm  115.444 67.8384 149.625
RightHand  -0.144832 -2.23669 -4.8564
LeftUpLeg  -17.4988 1.92736 0.23957
LeftLeg  7.22978 -5.19351 -0.451864
LeftFoot  -4.02013 0.428337 -6.31429
LeftToes  -8.31281e-010 4.41007e-011 3.74621e-011
788
root  -44.2068 39.2013 8.16499 164.229 72.1527 171.231
RightUpLeg  16.2081 -0.288208 -1.94976
RightLeg  14.6726 21.2425 0.839554
RightFoot  -20.5207 -0.628795 -6.09486
RightToes  -5.8209e-011 0 -3.6325e-017
Spine  6.46616 -1.79033 4.53773
Spine1  13.0476 -1.44047 -0.678678
HEad  -14.597 -7.28488 -0.0935481
LeftShoulder1  0.0318721 3.41198 -28.4903
LeftArm  -17.9178 10.9644 -33.0053
LeftForeArm  79.7127 -78.2911 -106.253
LeftHand  -0.102621 0.82559 2.52421
RightShoulder  -0.272314 -4.32706 25.7553
RightArm  -12.7843 -12.8526 41.319
RightForeArm  117.266 67.7445 149.951
RightHand  -0.0962626 -2.63484 -3.53264
LeftUpLeg  -17.7122 2.08872 0.373028
LeftLeg  8.20537 -4.35215 -0.426866
LeftFoot  -3.93592 0.354465 -5.08898
LeftToes  -8.31281e-010 4.41007e-011 3.74621e-011
789
root  -43.0779 38.8954 7.57251 163.903 73.406 170.928
RightUpLeg  18.0178 1.19135 -1.87157
RightLeg  15.1688 20.3802 0.995088
RightFoot  -21.9071 -0.755288 -6.55931
RightToes  -5.8209e-011 0 -3.6325e-017
Spine  5.71507 -1.61449 4.07566
Spine1  13.3112 -1.28123 -0.646446
HEad  -14.7004 -6.40979 0.45323
LeftShoulder1  0.0351578 3.40323 -28.7782
LeftArm  -17.8212 10.8093 -32.3633
LeftForeArm  81.3802 -78.1734 -108.069
LeftHand  -0.0924893 1.08744 2.36223
RightShoulder  -0.37552 -4.63046 26.319
RightArm  -12.45 -12.4875 40.7784
RightForeArm  116.07 67.8457 149.678
RightHand  -0.129727 -2.04316 -4.20642
LeftUpLeg  -17.7983 1.87588 0.244431
LeftLeg  10.7565 -1.65281 0.0264298
LeftFoot  -3.36479 0.226886 -2.9867
LeftToes  -8.31281e-010 4.41007e-011 3.74621e-011
790
root  -41.9195 38.6252 6.95271 161.648 74.9301 168.135
RightUpLeg  19.2059 4.45041 -2.05741
RightLeg  15.884 18.089 1.5626
RightFoot  -23.2321 -0.82967 -6.45268
RightToes  -5.8209e-011 0 -3.6325e-017
Spine  4.52467 -1.17953 3.24223
Spine1  13.6073 -0.736164 -1.14889
HEad  -14.6685 -6.06905 0.976261
LeftShoulder1  -0.0235925 3.57094 -28.7585
LeftArm  -17.4497 10.7983 -31.8361
LeftForeArm  83.9581 -77.9423 -111.006
LeftHand  -0.115162 0.710686 2.7993
RightShoulder  -0.412925 -4.74151 26.411
RightArm  -12.3555 -12.6623 40.3834
RightForeArm  115.348 67.9857 149.396
RightHand  -0.111953 -1.89887 -3.43115
LeftUpLeg  -17.9231 2.22195 -0.438949
LeftLeg  13.252 1.02167 0.57752
LeftFoot  0.48431 0.0950138 -0.994438
LeftToes  -8.31281e-010 4.41007e-011 3.74621e-011
791
root  -40.7405 38.3859 6.32617 157.937 76.0822 164.569
RightUpLeg  21.0122 9.17321 -1.63681
RightLeg  17.2067 14.1166 2.41713
RightFoot  -23.962 -0.753057 -5.35729
RightToes  -5.8209e-011 0 -3.6325e-017
Spine  4.7247 -0.932015 1.96436
Spine1  13.0766 -0.418645 -1.49137
HEad  -14.8003 -5.47409 1.52566
LeftShoulder1  -0.13855 3.89848 -28.9838
LeftArm  -17.1769 11.0421 -30.9467
LeftForeArm  88.126 -77.5341 -115.486
LeftHand  -0.108559 0.521331 2.55013
RightShoulder  -0.331842 -4.49019 26.5011
RightArm  -12.2586 -12.8399 39.957
RightForeArm  115.94 67.8975 149.589
RightHand  -0.108089 -2.11442 -3.4776
LeftUpLeg  -17.5226 3.80921 -1.31855
LeftLeg  15.8559 1.22773 0.631436
LeftFoot  6.92972 -0.100611 0.419242
LeftToes  -8.31281e-010 4.41007e-011 3.74621e-011
